<svg xmlns="http://www.w3.org/2000/svg" xmlns:xlink="http://www.w3.org/1999/xlink" width="241" height="84" viewBox="0 0 241 84"><defs><style>.a,.c{fill:#fff;}.b{fill:#c41919;}.c{font-size:14px;font-family:Montserrat-Bold, Montserrat;font-weight:700;}.d{clip-path:url(#c);}.e{filter:url(#a);}</style><filter id="a" x="0" y="0" width="241" height="84" filterUnits="userSpaceOnUse"><feOffset dx="3" dy="3" input="SourceAlpha"/><feGaussianBlur stdDeviation="5" result="b"/><feFlood flood-opacity="0.161"/><feComposite operator="in" in2="b"/><feComposite in="SourceGraphic"/></filter><clipPath id="c"><rect class="a" width="34.538" height="26.159"/></clipPath></defs><g transform="translate(-949 -2249)"><g class="e" transform="matrix(1, 0, 0, 1, 949, 2249)"><rect class="b" width="211" height="54" rx="10" transform="translate(12 12)"/></g><text class="c" transform="translate(1014 2270)"><tspan x="21.396" y="14">ACESSAR NO </tspan><tspan x="33.828" y="32">YOUTUBE</tspan></text><g transform="translate(979.462 2275)"><g class="d"><path class="a" d="M200.649,110.872l-7.63-4.175a1.4,1.4,0,0,0-2.074,1.229v8.278a1.4,1.4,0,0,0,2.065,1.234l7.63-4.1a1.4,1.4,0,0,0,.009-2.464m-7.68,4.291v-6.187l5.7,3.12Z" transform="translate(-178.065 -99.338)"/><path class="a" d="M34.283,6.174l0-.016A7.9,7.9,0,0,0,32.759,2.15,5.621,5.621,0,0,0,29.037.4L28.866.384l-.06-.006C24.239.046,17.344,0,17.275,0h-.012C17.194,0,10.3.046,5.691.378L5.63.384,5.468.4a5.478,5.478,0,0,0-3.7,1.8A8.278,8.278,0,0,0,.258,6.139l0,.035C.244,6.29,0,9.044,0,11.808v2.584c0,2.765.244,5.518.254,5.634l0,.017A7.821,7.821,0,0,0,1.773,24a5.735,5.735,0,0,0,3.847,1.721c.14.016.261.03.344.044l.08.011c2.636.251,10.9.374,11.252.379h.021c.069,0,6.964-.046,11.53-.378l.06-.006c.058-.008.122-.015.194-.022A5.352,5.352,0,0,0,32.77,24a8.277,8.277,0,0,0,1.51-3.936l0-.035c.01-.116.254-2.869.254-5.634V11.808c0-2.765-.244-5.518-.254-5.634m-1.77,8.218c0,2.559-.223,5.194-.245,5.436a6.425,6.425,0,0,1-.993,2.8,3.328,3.328,0,0,1-2.389,1.108l-.216.024c-4.416.319-11.051.368-11.357.37-.343,0-8.488-.13-11.044-.367-.131-.021-.272-.038-.422-.055a3.784,3.784,0,0,1-2.588-1.081l-.019-.02a5.83,5.83,0,0,1-.973-2.776c-.016-.183-.245-2.849-.245-5.444V11.808c0-2.556.223-5.188.245-5.435a6.294,6.294,0,0,1,.993-2.8A3.492,3.492,0,0,1,5.7,2.414l.165-.02c4.481-.321,11.163-.369,11.4-.37s6.92.05,11.361.37l.178.021a3.624,3.624,0,0,1,2.479,1.123l.008.009a5.924,5.924,0,0,1,.973,2.816c.015.173.245,2.845.245,5.445Z"/></g></g></g></svg>