<svg xmlns="http://www.w3.org/2000/svg" width="50" height="52.913" viewBox="0 0 50 52.913"><defs><style>.a{fill:#008ed8;}</style></defs><g transform="translate(-1202.634 -1400.206)"><path class="a" d="M1228.283,1424.932l1.254-1.786,6.064-8.635c.647-.921,1.3-1.843,1.937-2.768a.49.49,0,0,1,.452-.225q7.116.006,14.232,0c.315,0,.411.091.411.406q0,4.512,0,9.024c0,.317-.09.4-.414.4h-2.667v21.92c.082,0,.168.013.254.013.809,0,1.618,0,2.427,0,.307,0,.4.09.4.395q0,4.511,0,9.024c0,.324-.085.411-.4.411h-12.323c-.356,0-.433-.082-.433-.446v-10.282h-.25q-4.751,0-9.5,0a.8.8,0,0,1-.743-.385c-.3-.454-.624-.89-.951-1.352-.361.512-.708,1-1.052,1.493l-5.275,7.517c-.759,1.08-1.522,2.157-2.276,3.24a.455.455,0,0,1-.414.215q-4.917-.005-9.833,0c-.147,0-.292,0-.378-.156s-.008-.276.078-.4l6.469-9.211,7.183-10.228c.027-.039.052-.08.087-.133l-6.333-8.969-.048.006c0,.061-.008.122-.008.184q0,7.614,0,15.227c0,.768,0,1.535,0,2.3a.583.583,0,0,1-.657.647h-12.261a.587.587,0,0,1-.672-.654q0-4.668,0-9.336a.591.591,0,0,1,.672-.657h2.256v-20.881h-.3c-.643,0-1.286,0-1.929,0-.485,0-.7-.21-.7-.693q0-4.637,0-9.274a.6.6,0,0,1,.691-.681l12.2,0c.481,0,.7.215.7.69q0,8.733,0,17.467v.236c.067-.073.1-.1.131-.144q3.011-4.294,6.02-8.589,3.272-4.667,6.546-9.333a.727.727,0,0,1,.649-.33q4.854.005,9.709,0a.613.613,0,0,1,.608.314.631.631,0,0,1-.094.7q-3.211,4.571-6.417,9.146l-7.057,10.065c-.174.249-.356.493-.521.748a.258.258,0,0,0-.014.228q1.211,1.746,2.436,3.482A.378.378,0,0,0,1228.283,1424.932Zm11.183-.539c-.062.072-.1.111-.133.155q-2.793,3.976-5.588,7.951a.2.2,0,0,0,0,.271q2.812,4,5.618,8.007a.5.5,0,0,1,.043.112l.057-.048Z" transform="translate(0 0)"/></g></svg>