<svg xmlns="http://www.w3.org/2000/svg" xmlns:xlink="http://www.w3.org/1999/xlink" width="44.666" height="38.635" viewBox="0 0 44.666 38.635"><defs><style>.a{fill:#008ED8;}.b{opacity:0.7;}.c{clip-path:url(#a);}</style><clipPath id="a"><rect class="a" width="44.666" height="38.635"/></clipPath></defs><g class="b"><g class="c"><path class="a" d="M43.105,119.158a1.547,1.547,0,0,0-1.546-1.546H38.373a1.547,1.547,0,0,0-1.546,1.546v3.187a1.547,1.547,0,0,0,1.546,1.546H41.56a1.547,1.547,0,0,0,1.546-1.546Zm-.8,3.187a.745.745,0,0,1-.744.744H38.373a.745.745,0,0,1-.744-.744v-3.187a.745.745,0,0,1,.744-.744H41.56a.745.745,0,0,1,.744.744Z" transform="translate(-32.61 -104.146)"/><path class="a" d="M103.778,123.89h3.187a1.547,1.547,0,0,0,1.546-1.546v-3.187a1.547,1.547,0,0,0-1.546-1.546h-3.187a1.547,1.547,0,0,0-1.546,1.546v3.187a1.547,1.547,0,0,0,1.546,1.546m-.744-4.733a.745.745,0,0,1,.744-.744h3.187a.745.745,0,0,1,.744.744v3.187a.745.745,0,0,1-.744.744h-3.187a.745.745,0,0,1-.744-.744Z" transform="translate(-90.527 -104.146)"/><path class="a" d="M169.184,123.89h3.187a1.547,1.547,0,0,0,1.546-1.546v-3.187a1.547,1.547,0,0,0-1.546-1.546h-3.187a1.547,1.547,0,0,0-1.546,1.546v3.187a1.547,1.547,0,0,0,1.546,1.546m-.744-4.733a.745.745,0,0,1,.744-.744h3.187a.745.745,0,0,1,.744.744v3.187a.745.745,0,0,1-.744.744h-3.187a.745.745,0,0,1-.744-.744Z" transform="translate(-148.444 -104.146)"/><path class="a" d="M234.59,123.89h3.187a1.547,1.547,0,0,0,1.546-1.546v-3.187a1.547,1.547,0,0,0-1.546-1.546H234.59a1.547,1.547,0,0,0-1.546,1.546v3.187a1.547,1.547,0,0,0,1.546,1.546m-.744-4.733a.745.745,0,0,1,.744-.744h3.187a.745.745,0,0,1,.744.744v3.187a.745.745,0,0,1-.744.744H234.59a.745.745,0,0,1-.744-.744Z" transform="translate(-206.361 -104.146)"/><path class="a" d="M299.994,123.89h3.187a1.547,1.547,0,0,0,1.546-1.546v-3.187a1.547,1.547,0,0,0-1.546-1.546h-3.187a1.547,1.547,0,0,0-1.546,1.546v3.187a1.547,1.547,0,0,0,1.546,1.546m-.744-4.733a.745.745,0,0,1,.744-.744h3.187a.745.745,0,0,1,.744.744v3.187a.745.745,0,0,1-.744.744h-3.187a.745.745,0,0,1-.744-.744Z" transform="translate(-264.277 -104.146)"/><path class="a" d="M43.105,183.892a1.547,1.547,0,0,0-1.546-1.546H38.373a1.547,1.547,0,0,0-1.546,1.546v3.187a1.547,1.547,0,0,0,1.546,1.546H41.56a1.547,1.547,0,0,0,1.546-1.546Zm-.8,3.187a.745.745,0,0,1-.744.744H38.373a.745.745,0,0,1-.744-.744v-3.187a.745.745,0,0,1,.744-.744H41.56a.745.745,0,0,1,.744.744Z" transform="translate(-32.61 -161.468)"/><path class="a" d="M102.232,187.079a1.547,1.547,0,0,0,1.546,1.546h3.187a1.547,1.547,0,0,0,1.546-1.546v-3.187a1.547,1.547,0,0,0-1.546-1.546h-3.187a1.547,1.547,0,0,0-1.546,1.546Zm.8-3.187a.745.745,0,0,1,.744-.744h3.187a.745.745,0,0,1,.744.744v3.187a.745.745,0,0,1-.744.744h-3.187a.745.745,0,0,1-.744-.744Z" transform="translate(-90.527 -161.468)"/><path class="a" d="M167.638,187.079a1.547,1.547,0,0,0,1.546,1.546h3.187a1.547,1.547,0,0,0,1.546-1.546v-3.187a1.547,1.547,0,0,0-1.546-1.546h-3.187a1.547,1.547,0,0,0-1.546,1.546Zm.8-3.187a.745.745,0,0,1,.744-.744h3.187a.745.745,0,0,1,.744.744v3.187a.745.745,0,0,1-.744.744h-3.187a.745.745,0,0,1-.744-.744Z" transform="translate(-148.444 -161.468)"/><path class="a" d="M233.044,187.079a1.547,1.547,0,0,0,1.546,1.546h3.187a1.547,1.547,0,0,0,1.546-1.546v-3.187a1.547,1.547,0,0,0-1.546-1.546H234.59a1.547,1.547,0,0,0-1.546,1.546Zm.8-3.187a.745.745,0,0,1,.744-.744h3.187a.745.745,0,0,1,.744.744v3.187a.745.745,0,0,1-.744.744H234.59a.745.745,0,0,1-.744-.744Z" transform="translate(-206.361 -161.468)"/><path class="a" d="M298.448,187.079a1.547,1.547,0,0,0,1.546,1.546h3.187a1.547,1.547,0,0,0,1.546-1.546v-3.187a1.547,1.547,0,0,0-1.546-1.546h-3.187a1.547,1.547,0,0,0-1.546,1.546Zm.8-3.187a.745.745,0,0,1,.744-.744h3.187a.745.745,0,0,1,.744.744v3.187a.745.745,0,0,1-.744.744h-3.187a.745.745,0,0,1-.744-.744Z" transform="translate(-264.277 -161.468)"/><path class="a" d="M41.56,247.081H38.373a1.547,1.547,0,0,0-1.546,1.546v3.187a1.547,1.547,0,0,0,1.546,1.546H41.56a1.547,1.547,0,0,0,1.546-1.546v-3.187a1.547,1.547,0,0,0-1.546-1.546m.744,4.733a.745.745,0,0,1-.744.744H38.373a.745.745,0,0,1-.744-.744v-3.187a.745.745,0,0,1,.744-.744H41.56a.745.745,0,0,1,.744.744Z" transform="translate(-32.61 -218.791)"/><path class="a" d="M108.51,251.814v-3.187a1.547,1.547,0,0,0-1.546-1.546h-3.187a1.547,1.547,0,0,0-1.546,1.546v3.187a1.547,1.547,0,0,0,1.546,1.546h3.187a1.547,1.547,0,0,0,1.546-1.546m-5.477,0v-3.187a.745.745,0,0,1,.744-.744h3.187a.745.745,0,0,1,.744.744v3.187a.745.745,0,0,1-.744.744h-3.187a.745.745,0,0,1-.744-.744" transform="translate(-90.527 -218.791)"/><path class="a" d="M167.638,251.814a1.547,1.547,0,0,0,1.546,1.546h3.187a1.547,1.547,0,0,0,1.546-1.546v-3.187a1.547,1.547,0,0,0-1.546-1.546h-3.187a1.547,1.547,0,0,0-1.546,1.546Zm.8-3.187a.745.745,0,0,1,.744-.744h3.187a.745.745,0,0,1,.744.744v3.187a.745.745,0,0,1-.744.744h-3.187a.745.745,0,0,1-.744-.744Z" transform="translate(-148.444 -218.791)"/><path class="a" d="M233.044,251.814a1.547,1.547,0,0,0,1.546,1.546h3.187a1.547,1.547,0,0,0,1.546-1.546v-3.187a1.547,1.547,0,0,0-1.546-1.546H234.59a1.547,1.547,0,0,0-1.546,1.546Zm.8-3.187a.745.745,0,0,1,.744-.744h3.187a.745.745,0,0,1,.744.744v3.187a.745.745,0,0,1-.744.744H234.59a.745.745,0,0,1-.744-.744Z" transform="translate(-206.361 -218.791)"/><path class="a" d="M41.8,2.487H38.147v-.77A1.719,1.719,0,0,0,36.429,0H35.074a1.719,1.719,0,0,0-1.717,1.717v.77H29.2v-.77A1.719,1.719,0,0,0,27.483,0H26.129a1.719,1.719,0,0,0-1.717,1.717v.77H20.255v-.77A1.719,1.719,0,0,0,18.538,0H17.183a1.719,1.719,0,0,0-1.717,1.717v.77H11.309v-.77A1.719,1.719,0,0,0,9.592,0H8.237A1.719,1.719,0,0,0,6.519,1.717v.77H2.862A2.866,2.866,0,0,0,0,5.349V35.773a2.866,2.866,0,0,0,2.862,2.862h7.825a.572.572,0,1,0,0-1.145H2.863a1.719,1.719,0,0,1-1.717-1.717v-24.7H43.521V26.525a.572.572,0,0,0,1.145,0V5.349A2.866,2.866,0,0,0,41.8,2.487m-7.3-.77a.573.573,0,0,1,.572-.572h1.355A.573.573,0,0,1,37,1.717V5.285a.573.573,0,0,1-.572.572H35.074a.573.573,0,0,1-.572-.572Zm-8.946,0a.573.573,0,0,1,.572-.572h1.355a.573.573,0,0,1,.572.572V5.285a.573.573,0,0,1-.572.572H26.129a.573.573,0,0,1-.572-.572Zm-8.946,0a.573.573,0,0,1,.572-.572h1.355a.573.573,0,0,1,.572.572V5.285a.573.573,0,0,1-.572.572H17.183a.573.573,0,0,1-.572-.572Zm-8.946,0a.573.573,0,0,1,.572-.572H9.592a.573.573,0,0,1,.572.572V5.285a.573.573,0,0,1-.572.572H8.237a.573.573,0,0,1-.572-.572ZM43.521,9.931H1.145V5.349A1.719,1.719,0,0,1,2.863,3.632H6.52V5.285A1.719,1.719,0,0,0,8.237,7H9.592a1.719,1.719,0,0,0,1.717-1.717V3.632h4.156V5.285A1.719,1.719,0,0,0,17.183,7h1.355a1.719,1.719,0,0,0,1.717-1.717V3.632h4.156V5.285A1.719,1.719,0,0,0,26.129,7h1.355A1.719,1.719,0,0,0,29.2,5.285V3.632h4.156V5.285A1.719,1.719,0,0,0,35.075,7h1.355a1.719,1.719,0,0,0,1.717-1.717V3.632H41.8a1.719,1.719,0,0,1,1.717,1.717Z" transform="translate(0)"/><path class="a" d="M147.2,254.766a.572.572,0,0,0-.572.572v6.03a1.719,1.719,0,0,1-1.717,1.717h-27.9a.572.572,0,1,0,0,1.145h27.9a2.866,2.866,0,0,0,2.862-2.862v-6.03a.572.572,0,0,0-.572-.572" transform="translate(-103.106 -225.596)"/></g></g></svg>