<svg xmlns="http://www.w3.org/2000/svg" width="93.162" height="93.162" viewBox="0 0 93.162 93.162"><defs><style>.a{fill:#d73576;}.b{fill:#fff;}</style></defs><rect class="a" width="93.162" height="93.162"/><g transform="translate(19.755 19.755)"><path class="b" d="M3152.071-518.653h-20.119a16.767,16.767,0,0,0-16.766,16.766v20.119A16.768,16.768,0,0,0,3131.953-465h20.119a16.768,16.768,0,0,0,16.766-16.766v-20.119A16.768,16.768,0,0,0,3152.071-518.653Zm11.736,36.885a11.749,11.749,0,0,1-11.736,11.736h-20.119a11.749,11.749,0,0,1-11.736-11.736v-20.119a11.749,11.749,0,0,1,11.736-11.736h20.119a11.749,11.749,0,0,1,11.736,11.736Z" transform="translate(-3115.187 518.653)"/><g transform="translate(13.413 13.413)"><path class="b" d="M3306.463-340.789a13.413,13.413,0,0,0-13.412,13.413,13.413,13.413,0,0,0,13.412,13.413,13.412,13.412,0,0,0,13.412-13.413A13.412,13.412,0,0,0,3306.463-340.789Zm0,21.8a8.4,8.4,0,0,1-8.383-8.383,8.393,8.393,0,0,1,8.383-8.383,8.393,8.393,0,0,1,8.383,8.383A8.4,8.4,0,0,1,3306.463-318.993Z" transform="translate(-3293.051 340.789)"/></g><g transform="translate(39.457 10.62)"><circle class="b" cx="1.787" cy="1.787" r="1.787"/></g></g></svg>