<svg xmlns="http://www.w3.org/2000/svg" width="93.162" height="93.162" viewBox="0 0 93.162 93.162"><defs><style>.a{fill:#1178b3;}.b{fill:#fff;}</style></defs><rect class="a" width="93.162" height="93.162"/><g transform="translate(18.797 20.024)"><path class="b" d="M4657.293-515.1c-4.075,0-6.739,2.676-6.739,6.192,0,3.439,2.585,6.191,6.581,6.191h.078c4.155,0,6.74-2.752,6.74-6.191C4663.875-512.419,4661.368-515.1,4657.293-515.1Z" transform="translate(-4650.554 515.095)"/><path class="b" d="M4659.891-285.994H4671.8v35.838h-11.912Z" transform="translate(-4659.186 303.271)"/><path class="b" d="M4927.9-297.148c-6.426,0-10.736,6.039-10.736,6.039v-5.2h-11.911v35.838h11.911v-20.013a8.147,8.147,0,0,1,.394-2.907,6.518,6.518,0,0,1,6.11-4.356c4.312,0,6.035,3.286,6.035,8.1v19.172h11.911v-20.549C4941.616-292.026,4935.738-297.148,4927.9-297.148Z" transform="translate(-4886.047 313.583)"/></g></svg>