<svg xmlns="http://www.w3.org/2000/svg" width="93.162" height="93.162" viewBox="0 0 93.162 93.162"><defs><style>.a{fill:#c62828;}.b{fill:#fff;}</style></defs><rect class="a" width="93.162" height="93.162"/><g transform="translate(20.5 26.827)"><path class="b" d="M6703.193-274.4l-11.523-6.305a2.1,2.1,0,0,0-2.1.036,2.1,2.1,0,0,0-1.038,1.821v12.5a2.1,2.1,0,0,0,1.031,1.817,2.114,2.114,0,0,0,1.085.3,2.114,2.114,0,0,0,1-.255l11.524-6.2a2.119,2.119,0,0,0,1.114-1.857A2.115,2.115,0,0,0,6703.193-274.4Zm-11.6,6.481v-9.344l8.611,4.713Z" transform="translate(-6669.083 291.821)"/><path class="b" d="M6482.348-415.556l0-.024c-.043-.42-.483-4.154-2.3-6.054a8.488,8.488,0,0,0-5.622-2.636c-.095-.011-.181-.021-.258-.031l-.091-.009c-6.9-.5-17.312-.57-17.416-.57h-.019c-.1,0-10.519.069-17.476.57l-.092.009c-.074.01-.156.019-.245.03a8.274,8.274,0,0,0-5.589,2.717c-1.729,1.879-2.229,5.534-2.279,5.944l-.006.053c-.017.175-.385,4.334-.385,8.509v3.9c0,4.175.368,8.335.385,8.51l0,.026c.044.413.483,4.079,2.29,5.979a8.661,8.661,0,0,0,5.811,2.6c.212.024.395.045.52.067l.12.017c3.981.379,16.466.565,16.994.573h.032c.1,0,10.519-.069,17.415-.57l.09-.01c.088-.012.187-.022.293-.033a8.081,8.081,0,0,0,5.54-2.651c1.729-1.88,2.231-5.534,2.281-5.944l0-.053c.017-.175.386-4.334.386-8.509v-3.9C6482.733-411.223,6482.364-415.381,6482.348-415.556Zm-2.672,12.413c0,3.865-.338,7.845-.369,8.21-.129,1.006-.658,3.319-1.5,4.234a5.029,5.029,0,0,1-3.608,1.674c-.118.012-.227.024-.325.037-6.67.482-16.691.556-17.153.559-.518-.008-12.818-.2-16.679-.554-.2-.032-.412-.057-.637-.082a5.718,5.718,0,0,1-3.909-1.633l-.028-.03c-.827-.862-1.34-3.025-1.47-4.192-.025-.276-.371-4.3-.371-8.222v-3.9c0-3.86.338-7.836.369-8.209a9.535,9.535,0,0,1,1.5-4.235,5.275,5.275,0,0,1,3.684-1.743l.25-.03c6.767-.485,16.859-.557,17.222-.56s10.452.075,17.159.56l.269.032a5.474,5.474,0,0,1,3.743,1.7l.012.013c.829.862,1.341,3.062,1.471,4.253.023.261.371,4.3.371,8.224Z" transform="translate(-6430.57 424.881)"/></g></svg>