<svg xmlns="http://www.w3.org/2000/svg" xmlns:xlink="http://www.w3.org/1999/xlink" width="329" height="33.797" viewBox="0 0 329 33.797"><defs><style>.a{fill:#c41919;}.b{fill:#fff;font-size:20px;font-family:Montserrat-SemiBold, Montserrat;font-weight:600;}.c{clip-path:url(#a);}</style><clipPath id="a"><rect class="a" width="44.622" height="33.797"/></clipPath></defs><g transform="translate(-592 -20)"><text class="b" transform="translate(650 25)"><tspan x="0" y="19">100% ONLINE E GRATUITO</tspan></text><g transform="translate(592 20)"><g class="c"><path class="a" d="M203.483,112.142l-9.858-5.394a1.811,1.811,0,0,0-2.68,1.588v10.7a1.807,1.807,0,0,0,2.668,1.595l9.858-5.3a1.811,1.811,0,0,0,.011-3.183m-9.923,5.544v-7.993l7.368,4.031Z" transform="translate(-174.304 -97.24)"/><path class="a" d="M44.293,7.977l0-.02c-.038-.359-.414-3.554-1.967-5.179A7.262,7.262,0,0,0,37.515.523L37.294.5,37.216.488C31.317.059,22.408,0,22.319,0H22.3c-.089,0-9,.059-14.95.488L7.274.5,7.065.522A7.078,7.078,0,0,0,2.284,2.846C.8,4.454.377,7.58.333,7.931l-.005.046C.315,8.126,0,11.684,0,15.256v3.339c0,3.572.315,7.13.328,7.279l0,.022c.038.353.414,3.489,1.96,5.115a7.409,7.409,0,0,0,4.97,2.223c.181.021.338.039.444.057l.1.014c3.406.324,14.085.484,14.538.49h.027c.089,0,9-.059,14.9-.488l.078-.008c.075-.01.158-.019.25-.028A6.914,6.914,0,0,0,42.337,31c1.479-1.608,1.907-4.734,1.951-5.085l.005-.046c.013-.15.329-3.707.329-7.279V15.256c0-3.572-.315-7.129-.329-7.279M42.007,18.595c0,3.306-.289,6.711-.316,7.023a8.3,8.3,0,0,1-1.283,3.622,4.3,4.3,0,0,1-3.086,1.432c-.1.011-.194.021-.278.031-5.706.413-14.278.476-14.673.478-.443-.006-10.966-.168-14.268-.474-.169-.028-.352-.049-.545-.07a4.889,4.889,0,0,1-3.344-1.4l-.024-.026a7.532,7.532,0,0,1-1.258-3.586c-.021-.236-.317-3.681-.317-7.033V15.256c0-3.3.288-6.7.316-7.022A8.132,8.132,0,0,1,4.214,4.611,4.512,4.512,0,0,1,7.365,3.119l.213-.026C13.367,2.679,22,2.617,22.311,2.615s8.941.064,14.678.479l.23.027a4.683,4.683,0,0,1,3.2,1.451l.011.011A7.653,7.653,0,0,1,41.69,8.221c.02.223.317,3.675.317,7.035Z"/></g></g></g></svg>